<svg id="Layer_1" data-name="Layer 1" xmlns="http://www.w3.org/2000/svg" viewBox="0 0 365.17 350.32"><defs><style>.cls-1{fill:#c8c8d7;}.cls-2{fill:#1f97ff;}.cls-3{fill:#c89632;}.cls-4{fill:#ff5559;}.cls-5{fill:#c89664;}.cls-6{fill:#1cc900;}.cls-7{fill:#f4ff6a;}.cls-8{fill:#ffefb4;}</style></defs><title>postoffice</title><rect class="cls-1" x="351.64" y="26.95" width="13.53" height="13.47"/><rect class="cls-2" x="338.12" y="121.26" width="13.52" height="13.48"/><rect class="cls-2" x="338.12" y="107.79" width="13.52" height="13.47"/><rect class="cls-2" x="338.12" y="94.32" width="13.52" height="13.47"/><rect class="cls-2" x="338.12" y="80.84" width="13.52" height="13.48"/><rect class="cls-2" x="338.12" y="67.37" width="13.52" height="13.47"/><rect class="cls-1" x="338.12" y="53.89" width="13.52" height="13.48"/><rect class="cls-1" x="338.12" y="40.42" width="13.52" height="13.47"/><rect class="cls-1" x="338.12" y="26.95" width="13.52" height="13.47"/><rect class="cls-3" x="338.12" y="13.47" width="13.52" height="13.48"/><rect class="cls-3" x="324.59" y="336.84" width="13.53" height="13.48"/><rect class="cls-1" x="324.59" y="323.37" width="13.53" height="13.47"/><rect class="cls-1" x="324.59" y="309.89" width="13.53" height="13.48"/><rect class="cls-1" x="324.59" y="296.42" width="13.53" height="13.47"/><rect class="cls-1" x="324.59" y="282.95" width="13.53" height="13.47"/><rect class="cls-1" x="324.59" y="269.47" width="13.53" height="13.48"/><rect class="cls-1" x="324.59" y="256" width="13.53" height="13.47"/><rect class="cls-1" x="324.59" y="242.53" width="13.53" height="13.47"/><rect class="cls-1" x="324.59" y="229.05" width="13.53" height="13.48"/><rect class="cls-1" x="324.59" y="215.58" width="13.53" height="13.47"/><rect class="cls-1" x="324.59" y="202.11" width="13.53" height="13.47"/><rect class="cls-1" x="324.59" y="188.63" width="13.53" height="13.48"/><rect class="cls-1" x="324.59" y="175.16" width="13.53" height="13.47"/><rect class="cls-1" x="324.59" y="161.68" width="13.53" height="13.48"/><rect class="cls-1" x="324.59" y="148.21" width="13.53" height="13.47"/><rect class="cls-4" x="324.59" y="134.74" width="13.53" height="13.47"/><rect class="cls-2" x="324.59" y="121.26" width="13.53" height="13.48"/><rect class="cls-2" x="324.59" y="107.79" width="13.53" height="13.47"/><rect class="cls-2" x="324.59" y="94.32" width="13.53" height="13.47"/><rect class="cls-2" x="324.59" y="80.84" width="13.53" height="13.48"/><rect class="cls-2" x="324.59" y="67.37" width="13.53" height="13.47"/><rect class="cls-1" x="324.59" y="53.89" width="13.53" height="13.48"/><rect class="cls-1" x="324.59" y="40.42" width="13.53" height="13.47"/><rect class="cls-1" x="324.59" y="26.95" width="13.53" height="13.47"/><rect class="cls-3" x="324.59" y="13.47" width="13.53" height="13.48"/><rect class="cls-3" x="324.59" width="13.53" height="13.47"/><rect class="cls-3" x="311.07" y="336.84" width="13.52" height="13.48"/><rect class="cls-1" x="311.07" y="323.37" width="13.52" height="13.47"/><rect class="cls-1" x="311.07" y="309.89" width="13.52" height="13.48"/><rect class="cls-1" x="311.07" y="296.42" width="13.52" height="13.47"/><rect class="cls-1" x="311.07" y="282.95" width="13.52" height="13.47"/><rect class="cls-1" x="311.07" y="269.47" width="13.52" height="13.48"/><rect class="cls-1" x="311.07" y="256" width="13.52" height="13.47"/><rect class="cls-1" x="311.07" y="242.53" width="13.52" height="13.47"/><rect class="cls-1" x="311.07" y="229.05" width="13.52" height="13.48"/><rect class="cls-1" x="311.07" y="215.58" width="13.52" height="13.47"/><rect class="cls-1" x="311.07" y="202.11" width="13.52" height="13.47"/><rect class="cls-1" x="311.07" y="188.63" width="13.52" height="13.48"/><rect class="cls-1" x="311.07" y="175.16" width="13.52" height="13.47"/><rect class="cls-1" x="311.07" y="161.68" width="13.52" height="13.48"/><rect class="cls-1" x="311.07" y="148.21" width="13.52" height="13.47"/><rect class="cls-4" x="311.07" y="134.74" width="13.52" height="13.47"/><rect class="cls-2" x="311.07" y="121.26" width="13.52" height="13.48"/><rect class="cls-2" x="311.07" y="107.79" width="13.52" height="13.47"/><rect class="cls-2" x="311.07" y="94.32" width="13.52" height="13.47"/><rect class="cls-2" x="311.07" y="80.84" width="13.52" height="13.48"/><rect class="cls-2" x="311.07" y="67.37" width="13.52" height="13.47"/><rect class="cls-1" x="311.07" y="53.89" width="13.52" height="13.48"/><rect class="cls-1" x="311.07" y="40.42" width="13.52" height="13.47"/><rect class="cls-1" x="311.07" y="26.95" width="13.52" height="13.47"/><rect class="cls-3" x="311.07" y="13.47" width="13.52" height="13.48"/><rect class="cls-3" x="311.07" width="13.52" height="13.47"/><rect class="cls-3" x="297.54" y="336.84" width="13.53" height="13.48"/><rect class="cls-1" x="297.54" y="323.37" width="13.53" height="13.47"/><rect class="cls-1" x="297.54" y="309.89" width="13.53" height="13.48"/><rect class="cls-1" x="297.54" y="296.42" width="13.53" height="13.47"/><rect class="cls-5" x="297.54" y="282.95" width="13.53" height="13.47"/><rect class="cls-6" x="297.54" y="269.47" width="13.53" height="13.48"/><rect class="cls-4" x="297.54" y="256" width="13.53" height="13.47"/><rect class="cls-4" x="297.54" y="242.53" width="13.53" height="13.47"/><rect class="cls-4" x="297.54" y="229.05" width="13.53" height="13.48"/><rect class="cls-4" x="297.54" y="215.58" width="13.53" height="13.47"/><rect class="cls-4" x="297.54" y="202.11" width="13.53" height="13.47"/><rect class="cls-4" x="297.54" y="188.63" width="13.53" height="13.48"/><rect class="cls-1" x="297.54" y="175.16" width="13.53" height="13.47"/><rect class="cls-1" x="297.54" y="161.68" width="13.53" height="13.48"/><rect class="cls-1" x="297.54" y="148.21" width="13.53" height="13.47"/><rect class="cls-4" x="297.54" y="134.74" width="13.53" height="13.47"/><rect class="cls-2" x="297.54" y="121.26" width="13.53" height="13.48"/><rect class="cls-2" x="297.54" y="107.79" width="13.53" height="13.47"/><rect class="cls-2" x="297.54" y="94.32" width="13.53" height="13.47"/><rect class="cls-2" x="297.54" y="80.84" width="13.53" height="13.48"/><rect class="cls-2" x="297.54" y="67.37" width="13.53" height="13.47"/><rect class="cls-1" x="297.54" y="53.89" width="13.53" height="13.48"/><rect class="cls-1" x="297.54" y="40.42" width="13.53" height="13.47"/><rect class="cls-1" x="297.54" y="26.95" width="13.53" height="13.47"/><rect class="cls-3" x="297.54" y="13.47" width="13.53" height="13.48"/><rect class="cls-3" x="297.54" width="13.53" height="13.47"/><rect class="cls-3" x="284.02" y="336.84" width="13.52" height="13.48"/><rect class="cls-1" x="284.02" y="323.37" width="13.52" height="13.47"/><rect class="cls-1" x="284.02" y="309.89" width="13.52" height="13.48"/><rect class="cls-5" x="284.02" y="296.42" width="13.52" height="13.47"/><rect class="cls-5" x="284.02" y="282.95" width="13.52" height="13.47"/><rect class="cls-6" x="284.02" y="269.47" width="13.52" height="13.48"/><rect class="cls-7" x="284.02" y="256" width="13.52" height="13.47"/><rect class="cls-4" x="284.02" y="242.53" width="13.52" height="13.47"/><rect class="cls-1" x="284.02" y="229.05" width="13.52" height="13.48"/><rect class="cls-1" x="284.02" y="215.58" width="13.52" height="13.47"/><rect class="cls-1" x="284.02" y="202.11" width="13.52" height="13.47"/><rect class="cls-4" x="284.02" y="188.63" width="13.52" height="13.48"/><rect class="cls-1" x="284.02" y="175.16" width="13.52" height="13.47"/><rect class="cls-1" x="284.02" y="161.68" width="13.52" height="13.48"/><rect class="cls-1" x="284.02" y="148.21" width="13.52" height="13.47"/><rect class="cls-4" x="284.02" y="134.74" width="13.52" height="13.47"/><rect class="cls-2" x="284.02" y="121.26" width="13.52" height="13.48"/><rect class="cls-2" x="284.02" y="107.79" width="13.52" height="13.47"/><rect class="cls-2" x="284.02" y="94.32" width="13.52" height="13.47"/><rect class="cls-2" x="284.02" y="80.84" width="13.52" height="13.48"/><rect class="cls-2" x="284.02" y="67.37" width="13.52" height="13.47"/><rect class="cls-1" x="284.02" y="53.89" width="13.52" height="13.48"/><rect class="cls-1" x="284.02" y="40.42" width="13.52" height="13.47"/><rect class="cls-1" x="284.02" y="26.95" width="13.52" height="13.47"/><rect class="cls-3" x="284.02" y="13.47" width="13.52" height="13.48"/><rect class="cls-3" x="284.02" width="13.52" height="13.47"/><rect class="cls-3" x="270.49" y="336.84" width="13.53" height="13.48"/><rect class="cls-1" x="270.49" y="323.37" width="13.53" height="13.47"/><rect class="cls-1" x="270.49" y="309.89" width="13.53" height="13.48"/><rect class="cls-5" x="270.49" y="296.42" width="13.53" height="13.47"/><rect class="cls-6" x="270.49" y="282.95" width="13.53" height="13.47"/><rect class="cls-6" x="270.49" y="269.47" width="13.53" height="13.48"/><rect class="cls-6" x="270.49" y="256" width="13.53" height="13.47"/><rect class="cls-4" x="270.49" y="242.53" width="13.53" height="13.47"/><rect class="cls-4" x="270.49" y="229.05" width="13.53" height="13.48"/><rect class="cls-4" x="270.49" y="215.58" width="13.53" height="13.47"/><rect class="cls-4" x="270.49" y="202.11" width="13.53" height="13.47"/><rect class="cls-4" x="270.49" y="188.63" width="13.53" height="13.48"/><rect class="cls-1" x="270.49" y="175.16" width="13.53" height="13.47"/><rect class="cls-1" x="270.49" y="161.68" width="13.53" height="13.48"/><rect class="cls-1" x="270.49" y="148.21" width="13.53" height="13.47"/><rect class="cls-4" x="270.49" y="134.74" width="13.53" height="13.47"/><rect class="cls-3" x="270.49" y="121.26" width="13.53" height="13.48"/><rect class="cls-8" x="270.49" y="107.79" width="13.53" height="13.47"/><rect class="cls-8" x="270.49" y="94.32" width="13.53" height="13.47"/><rect class="cls-8" x="270.49" y="80.84" width="13.53" height="13.48"/><rect class="cls-8" x="270.49" y="67.37" width="13.53" height="13.47"/><rect class="cls-8" x="270.49" y="53.89" width="13.53" height="13.48"/><rect class="cls-3" x="270.49" y="40.42" width="13.53" height="13.47"/><rect class="cls-1" x="270.49" y="26.95" width="13.53" height="13.47"/><rect class="cls-3" x="270.49" y="13.47" width="13.53" height="13.48"/><rect class="cls-3" x="270.49" width="13.53" height="13.47"/><rect class="cls-3" x="256.97" y="336.84" width="13.52" height="13.48"/><rect class="cls-1" x="256.97" y="323.37" width="13.52" height="13.47"/><rect class="cls-1" x="256.97" y="309.89" width="13.52" height="13.48"/><rect class="cls-5" x="256.97" y="296.42" width="13.52" height="13.47"/><rect class="cls-6" x="256.97" y="282.95" width="13.52" height="13.47"/><rect class="cls-7" x="256.97" y="269.47" width="13.52" height="13.48"/><rect class="cls-1" x="256.97" y="256" width="13.52" height="13.47"/><rect class="cls-4" x="256.97" y="242.53" width="13.52" height="13.47"/><rect class="cls-1" x="256.97" y="229.05" width="13.52" height="13.48"/><rect class="cls-1" x="256.97" y="215.58" width="13.52" height="13.47"/><rect class="cls-1" x="256.97" y="202.11" width="13.52" height="13.47"/><rect class="cls-4" x="256.97" y="188.63" width="13.52" height="13.48"/><rect class="cls-1" x="256.97" y="175.16" width="13.52" height="13.47"/><rect class="cls-1" x="256.97" y="161.68" width="13.52" height="13.48"/><rect class="cls-1" x="256.97" y="148.21" width="13.52" height="13.47"/><rect class="cls-4" x="256.97" y="134.74" width="13.52" height="13.47"/><rect class="cls-8" x="256.97" y="121.26" width="13.52" height="13.48"/><rect class="cls-3" x="256.97" y="107.79" width="13.52" height="13.47"/><rect class="cls-8" x="256.97" y="94.32" width="13.52" height="13.47"/><rect class="cls-8" x="256.97" y="80.84" width="13.52" height="13.48"/><rect class="cls-8" x="256.97" y="67.37" width="13.52" height="13.47"/><rect class="cls-3" x="256.97" y="53.89" width="13.52" height="13.48"/><rect class="cls-8" x="256.97" y="40.42" width="13.52" height="13.47"/><rect class="cls-1" x="256.97" y="26.95" width="13.52" height="13.47"/><rect class="cls-3" x="256.97" y="13.47" width="13.52" height="13.48"/><rect class="cls-3" x="256.97" width="13.52" height="13.47"/><rect class="cls-3" x="243.44" y="336.84" width="13.53" height="13.48"/><rect class="cls-1" x="243.44" y="323.37" width="13.53" height="13.47"/><rect class="cls-1" x="243.44" y="309.89" width="13.53" height="13.48"/><rect class="cls-1" x="243.44" y="296.42" width="13.53" height="13.47"/><rect class="cls-5" x="243.44" y="282.95" width="13.53" height="13.47"/><rect class="cls-6" x="243.44" y="269.47" width="13.53" height="13.48"/><rect class="cls-4" x="243.44" y="256" width="13.53" height="13.47"/><rect class="cls-4" x="243.44" y="242.53" width="13.53" height="13.47"/><rect class="cls-4" x="243.44" y="229.05" width="13.53" height="13.48"/><rect class="cls-4" x="243.44" y="215.58" width="13.53" height="13.47"/><rect class="cls-4" x="243.44" y="202.11" width="13.53" height="13.47"/><rect class="cls-4" x="243.44" y="188.63" width="13.53" height="13.48"/><rect class="cls-1" x="243.44" y="175.16" width="13.53" height="13.47"/><rect class="cls-1" x="243.44" y="161.68" width="13.53" height="13.48"/><rect class="cls-1" x="243.44" y="148.21" width="13.53" height="13.47"/><rect class="cls-4" x="243.44" y="134.74" width="13.53" height="13.47"/><rect class="cls-8" x="243.44" y="121.26" width="13.53" height="13.48"/><rect class="cls-8" x="243.44" y="107.79" width="13.53" height="13.47"/><rect class="cls-3" x="243.44" y="94.32" width="13.53" height="13.47"/><rect class="cls-8" x="243.44" y="80.84" width="13.53" height="13.48"/><rect class="cls-8" x="243.44" y="67.37" width="13.53" height="13.47"/><rect class="cls-3" x="243.44" y="53.89" width="13.53" height="13.48"/><rect class="cls-8" x="243.44" y="40.42" width="13.53" height="13.47"/><rect class="cls-1" x="243.44" y="26.95" width="13.53" height="13.47"/><rect class="cls-3" x="243.44" y="13.47" width="13.53" height="13.48"/><rect class="cls-3" x="243.44" width="13.53" height="13.47"/><rect class="cls-3" x="229.92" y="336.84" width="13.52" height="13.48"/><rect class="cls-1" x="229.92" y="323.37" width="13.52" height="13.47"/><rect class="cls-1" x="229.92" y="309.89" width="13.52" height="13.48"/><rect class="cls-1" x="229.92" y="296.42" width="13.52" height="13.47"/><rect class="cls-1" x="229.92" y="282.95" width="13.52" height="13.47"/><rect class="cls-1" x="229.92" y="269.47" width="13.52" height="13.48"/><rect class="cls-1" x="229.92" y="256" width="13.52" height="13.47"/><rect class="cls-1" x="229.92" y="242.53" width="13.52" height="13.47"/><rect class="cls-1" x="229.92" y="229.05" width="13.52" height="13.48"/><rect class="cls-1" x="229.92" y="215.58" width="13.52" height="13.47"/><rect class="cls-1" x="229.92" y="202.11" width="13.52" height="13.47"/><rect class="cls-1" x="229.92" y="188.63" width="13.52" height="13.48"/><rect class="cls-1" x="229.92" y="175.16" width="13.52" height="13.47"/><rect class="cls-1" x="229.92" y="161.68" width="13.52" height="13.48"/><rect class="cls-1" x="229.92" y="148.21" width="13.52" height="13.47"/><rect class="cls-4" x="229.92" y="134.74" width="13.52" height="13.47"/><rect class="cls-8" x="229.92" y="121.26" width="13.52" height="13.48"/><rect class="cls-8" x="229.92" y="107.79" width="13.52" height="13.47"/><rect class="cls-3" x="229.92" y="94.32" width="13.52" height="13.47"/><rect class="cls-8" x="229.92" y="80.84" width="13.52" height="13.48"/><rect class="cls-3" x="229.92" y="67.37" width="13.52" height="13.47"/><rect class="cls-8" x="229.92" y="53.89" width="13.52" height="13.48"/><rect class="cls-8" x="229.92" y="40.42" width="13.52" height="13.47"/><rect class="cls-1" x="229.92" y="26.95" width="13.52" height="13.47"/><rect class="cls-3" x="229.92" y="13.47" width="13.52" height="13.48"/><rect class="cls-3" x="229.92" width="13.52" height="13.47"/><rect class="cls-3" x="216.39" y="336.84" width="13.53" height="13.48"/><rect class="cls-1" x="216.39" y="323.37" width="13.53" height="13.47"/><rect class="cls-1" x="216.39" y="309.89" width="13.53" height="13.48"/><rect class="cls-1" x="216.39" y="296.42" width="13.53" height="13.47"/><rect class="cls-1" x="216.39" y="282.95" width="13.53" height="13.47"/><rect class="cls-1" x="216.39" y="269.47" width="13.53" height="13.48"/><rect class="cls-1" x="216.39" y="256" width="13.53" height="13.47"/><rect class="cls-1" x="216.39" y="242.53" width="13.53" height="13.47"/><rect class="cls-1" x="216.39" y="229.05" width="13.53" height="13.48"/><rect class="cls-1" x="216.39" y="215.58" width="13.53" height="13.47"/><rect class="cls-1" x="216.39" y="202.11" width="13.53" height="13.47"/><rect class="cls-1" x="216.39" y="188.63" width="13.53" height="13.48"/><rect class="cls-1" x="216.39" y="175.16" width="13.53" height="13.47"/><rect class="cls-1" x="216.39" y="161.68" width="13.53" height="13.48"/><rect class="cls-1" x="216.39" y="148.21" width="13.53" height="13.47"/><rect class="cls-4" x="216.39" y="134.74" width="13.53" height="13.47"/><rect class="cls-8" x="216.39" y="121.26" width="13.53" height="13.48"/><rect class="cls-8" x="216.39" y="107.79" width="13.53" height="13.47"/><rect class="cls-8" x="216.39" y="94.32" width="13.53" height="13.47"/><rect class="cls-3" x="216.39" y="80.84" width="13.53" height="13.48"/><rect class="cls-3" x="216.39" y="67.37" width="13.53" height="13.47"/><rect class="cls-8" x="216.39" y="53.89" width="13.53" height="13.48"/><rect class="cls-8" x="216.39" y="40.42" width="13.53" height="13.47"/><rect class="cls-1" x="216.39" y="26.95" width="13.53" height="13.47"/><rect class="cls-3" x="216.39" y="13.47" width="13.53" height="13.48"/><rect class="cls-3" x="216.39" width="13.53" height="13.47"/><rect class="cls-3" x="202.87" y="336.84" width="13.52" height="13.48"/><rect class="cls-4" x="202.87" y="323.37" width="13.52" height="13.47"/><rect class="cls-4" x="202.87" y="309.89" width="13.52" height="13.48"/><rect class="cls-4" x="202.87" y="296.42" width="13.52" height="13.47"/><rect class="cls-4" x="202.87" y="282.95" width="13.52" height="13.47"/><rect class="cls-4" x="202.87" y="269.47" width="13.52" height="13.48"/><rect class="cls-4" x="202.87" y="256" width="13.52" height="13.47"/><rect class="cls-4" x="202.87" y="242.53" width="13.52" height="13.47"/><rect class="cls-4" x="202.87" y="229.05" width="13.52" height="13.48"/><rect class="cls-1" x="202.87" y="215.58" width="13.52" height="13.47"/><rect class="cls-1" x="202.87" y="202.11" width="13.52" height="13.47"/><rect class="cls-1" x="202.87" y="188.63" width="13.52" height="13.48"/><rect class="cls-1" x="202.87" y="175.16" width="13.52" height="13.47"/><rect class="cls-1" x="202.87" y="161.68" width="13.52" height="13.48"/><rect class="cls-1" x="202.87" y="148.21" width="13.52" height="13.47"/><rect class="cls-4" x="202.87" y="134.74" width="13.52" height="13.47"/><rect class="cls-8" x="202.87" y="121.26" width="13.52" height="13.48"/><rect class="cls-8" x="202.87" y="107.79" width="13.52" height="13.47"/><rect class="cls-8" x="202.87" y="94.32" width="13.52" height="13.47"/><rect class="cls-3" x="202.87" y="80.84" width="13.52" height="13.48"/><rect class="cls-8" x="202.87" y="67.37" width="13.52" height="13.47"/><rect class="cls-8" x="202.87" y="53.89" width="13.52" height="13.48"/><rect class="cls-8" x="202.87" y="40.42" width="13.52" height="13.47"/><rect class="cls-1" x="202.87" y="26.95" width="13.52" height="13.47"/><rect class="cls-3" x="202.87" y="13.47" width="13.52" height="13.48"/><rect class="cls-3" x="202.87" width="13.52" height="13.47"/><rect class="cls-3" x="189.34" y="336.84" width="13.53" height="13.48"/><rect class="cls-1" x="189.34" y="323.37" width="13.53" height="13.47"/><rect class="cls-1" x="189.34" y="309.89" width="13.53" height="13.48"/><rect class="cls-1" x="189.34" y="296.42" width="13.53" height="13.47"/><rect class="cls-1" x="189.34" y="282.95" width="13.53" height="13.47"/><rect class="cls-1" x="189.34" y="269.47" width="13.53" height="13.48"/><rect class="cls-1" x="189.34" y="256" width="13.53" height="13.47"/><rect class="cls-1" x="189.34" y="242.53" width="13.53" height="13.47"/><rect class="cls-4" x="189.34" y="229.05" width="13.53" height="13.48"/><rect class="cls-1" x="189.34" y="215.58" width="13.53" height="13.47"/><rect class="cls-1" x="189.34" y="202.11" width="13.53" height="13.47"/><rect class="cls-1" x="189.34" y="188.63" width="13.53" height="13.48"/><rect class="cls-1" x="189.34" y="175.16" width="13.53" height="13.47"/><rect class="cls-1" x="189.34" y="161.68" width="13.53" height="13.48"/><rect class="cls-1" x="189.34" y="148.21" width="13.53" height="13.47"/><rect class="cls-4" x="189.34" y="134.74" width="13.53" height="13.47"/><rect class="cls-8" x="189.34" y="121.26" width="13.53" height="13.48"/><rect class="cls-8" x="189.34" y="107.79" width="13.53" height="13.47"/><rect class="cls-8" x="189.34" y="94.32" width="13.53" height="13.47"/><rect class="cls-3" x="189.34" y="80.84" width="13.53" height="13.48"/><rect class="cls-8" x="189.34" y="67.37" width="13.53" height="13.47"/><rect class="cls-8" x="189.34" y="53.89" width="13.53" height="13.48"/><rect class="cls-8" x="189.34" y="40.42" width="13.53" height="13.47"/><rect class="cls-1" x="189.34" y="26.95" width="13.53" height="13.47"/><rect class="cls-3" x="189.34" y="13.47" width="13.53" height="13.48"/><rect class="cls-3" x="189.34" width="13.53" height="13.47"/><rect class="cls-3" x="175.82" y="336.84" width="13.52" height="13.48"/><rect class="cls-1" x="175.82" y="323.37" width="13.52" height="13.47"/><rect class="cls-1" x="175.82" y="309.89" width="13.52" height="13.48"/><rect class="cls-2" x="175.82" y="296.42" width="13.52" height="13.47"/><rect class="cls-2" x="175.82" y="282.95" width="13.52" height="13.47"/><rect class="cls-1" x="175.82" y="269.47" width="13.52" height="13.48"/><rect class="cls-1" x="175.82" y="256" width="13.52" height="13.47"/><rect class="cls-1" x="175.82" y="242.53" width="13.52" height="13.47"/><rect class="cls-4" x="175.82" y="229.05" width="13.52" height="13.48"/><rect class="cls-1" x="175.82" y="215.58" width="13.52" height="13.47"/><rect class="cls-1" x="175.82" y="202.11" width="13.52" height="13.47"/><rect class="cls-1" x="175.82" y="188.63" width="13.52" height="13.48"/><rect class="cls-1" x="175.82" y="175.16" width="13.52" height="13.47"/><rect class="cls-1" x="175.82" y="161.68" width="13.52" height="13.48"/><rect class="cls-1" x="175.82" y="148.21" width="13.52" height="13.47"/><rect class="cls-4" x="175.82" y="134.74" width="13.52" height="13.47"/><rect class="cls-8" x="175.82" y="121.26" width="13.52" height="13.48"/><rect class="cls-8" x="175.82" y="107.79" width="13.52" height="13.47"/><rect class="cls-3" x="175.82" y="94.32" width="13.52" height="13.47"/><rect class="cls-8" x="175.82" y="80.84" width="13.52" height="13.48"/><rect class="cls-8" x="175.82" y="67.37" width="13.52" height="13.47"/><rect class="cls-8" x="175.82" y="53.89" width="13.52" height="13.48"/><rect class="cls-8" x="175.82" y="40.42" width="13.52" height="13.47"/><rect class="cls-1" x="175.82" y="26.95" width="13.52" height="13.47"/><rect class="cls-3" x="175.82" y="13.47" width="13.52" height="13.48"/><rect class="cls-3" x="175.82" width="13.52" height="13.47"/><rect class="cls-3" x="162.3" y="336.84" width="13.52" height="13.48"/><rect class="cls-1" x="162.3" y="323.37" width="13.52" height="13.47"/><rect class="cls-1" x="162.3" y="309.89" width="13.52" height="13.48"/><rect class="cls-1" x="162.3" y="296.42" width="13.52" height="13.47"/><rect class="cls-1" x="162.3" y="282.95" width="13.52" height="13.47"/><rect class="cls-1" x="162.3" y="269.47" width="13.52" height="13.48"/><rect class="cls-1" x="162.3" y="256" width="13.52" height="13.47"/><rect class="cls-1" x="162.3" y="242.53" width="13.52" height="13.47"/><rect class="cls-4" x="162.3" y="229.05" width="13.52" height="13.48"/><rect class="cls-1" x="162.3" y="215.58" width="13.52" height="13.47"/><rect class="cls-1" x="162.3" y="202.11" width="13.52" height="13.47"/><rect class="cls-1" x="162.3" y="188.63" width="13.52" height="13.48"/><rect class="cls-1" x="162.3" y="175.16" width="13.52" height="13.47"/><rect class="cls-1" x="162.3" y="161.68" width="13.52" height="13.48"/><rect class="cls-1" x="162.3" y="148.21" width="13.52" height="13.47"/><rect class="cls-4" x="162.3" y="134.74" width="13.52" height="13.47"/><rect class="cls-8" x="162.3" y="121.26" width="13.52" height="13.48"/><rect class="cls-8" x="162.3" y="107.79" width="13.52" height="13.47"/><rect class="cls-8" x="162.3" y="94.32" width="13.52" height="13.47"/><rect class="cls-3" x="162.3" y="80.84" width="13.52" height="13.48"/><rect class="cls-8" x="162.3" y="67.37" width="13.52" height="13.47"/><rect class="cls-8" x="162.3" y="53.89" width="13.52" height="13.48"/><rect class="cls-8" x="162.3" y="40.42" width="13.52" height="13.47"/><rect class="cls-1" x="162.3" y="26.95" width="13.52" height="13.47"/><rect class="cls-3" x="162.3" y="13.47" width="13.52" height="13.48"/><rect class="cls-3" x="162.3" width="13.52" height="13.47"/><rect class="cls-3" x="148.77" y="336.84" width="13.53" height="13.48"/><rect class="cls-4" x="148.77" y="323.37" width="13.53" height="13.47"/><rect class="cls-4" x="148.77" y="309.89" width="13.53" height="13.48"/><rect class="cls-4" x="148.77" y="296.42" width="13.53" height="13.47"/><rect class="cls-4" x="148.77" y="282.95" width="13.53" height="13.47"/><rect class="cls-4" x="148.77" y="269.47" width="13.53" height="13.48"/><rect class="cls-4" x="148.77" y="256" width="13.53" height="13.47"/><rect class="cls-4" x="148.77" y="242.53" width="13.53" height="13.47"/><rect class="cls-4" x="148.77" y="229.05" width="13.53" height="13.48"/><rect class="cls-1" x="148.77" y="215.58" width="13.53" height="13.47"/><rect class="cls-1" x="148.77" y="202.11" width="13.53" height="13.47"/><rect class="cls-1" x="148.77" y="188.63" width="13.53" height="13.48"/><rect class="cls-1" x="148.77" y="175.16" width="13.53" height="13.47"/><rect class="cls-1" x="148.77" y="161.68" width="13.53" height="13.48"/><rect class="cls-1" x="148.77" y="148.21" width="13.53" height="13.47"/><rect class="cls-4" x="148.77" y="134.74" width="13.53" height="13.47"/><rect class="cls-8" x="148.77" y="121.26" width="13.53" height="13.48"/><rect class="cls-8" x="148.77" y="107.79" width="13.53" height="13.47"/><rect class="cls-8" x="148.77" y="94.32" width="13.53" height="13.47"/><rect class="cls-3" x="148.77" y="80.84" width="13.53" height="13.48"/><rect class="cls-8" x="148.77" y="67.37" width="13.53" height="13.47"/><rect class="cls-8" x="148.77" y="53.89" width="13.53" height="13.48"/><rect class="cls-8" x="148.77" y="40.42" width="13.53" height="13.47"/><rect class="cls-1" x="148.77" y="26.95" width="13.53" height="13.47"/><rect class="cls-3" x="148.77" y="13.47" width="13.53" height="13.48"/><rect class="cls-3" x="148.77" width="13.53" height="13.47"/><rect class="cls-3" x="135.25" y="336.84" width="13.52" height="13.48"/><rect class="cls-1" x="135.25" y="323.37" width="13.52" height="13.47"/><rect class="cls-1" x="135.25" y="309.89" width="13.52" height="13.48"/><rect class="cls-1" x="135.25" y="296.42" width="13.52" height="13.47"/><rect class="cls-1" x="135.25" y="282.95" width="13.52" height="13.47"/><rect class="cls-1" x="135.25" y="269.47" width="13.52" height="13.48"/><rect class="cls-1" x="135.25" y="256" width="13.52" height="13.47"/><rect class="cls-1" x="135.25" y="242.53" width="13.52" height="13.47"/><rect class="cls-1" x="135.25" y="229.05" width="13.52" height="13.48"/><rect class="cls-1" x="135.25" y="215.58" width="13.52" height="13.47"/><rect class="cls-1" x="135.25" y="202.11" width="13.52" height="13.47"/><rect class="cls-1" x="135.25" y="188.63" width="13.52" height="13.48"/><rect class="cls-1" x="135.25" y="175.16" width="13.52" height="13.47"/><rect class="cls-1" x="135.25" y="161.68" width="13.52" height="13.48"/><rect class="cls-1" x="135.25" y="148.21" width="13.52" height="13.47"/><rect class="cls-4" x="135.25" y="134.74" width="13.52" height="13.47"/><rect class="cls-8" x="135.25" y="121.26" width="13.52" height="13.48"/><rect class="cls-8" x="135.25" y="107.79" width="13.52" height="13.47"/><rect class="cls-8" x="135.25" y="94.32" width="13.52" height="13.47"/><rect class="cls-3" x="135.25" y="80.84" width="13.52" height="13.48"/><rect class="cls-3" x="135.25" y="67.37" width="13.52" height="13.47"/><rect class="cls-8" x="135.25" y="53.89" width="13.52" height="13.48"/><rect class="cls-8" x="135.25" y="40.42" width="13.52" height="13.47"/><rect class="cls-1" x="135.25" y="26.95" width="13.52" height="13.47"/><rect class="cls-3" x="135.25" y="13.47" width="13.52" height="13.48"/><rect class="cls-3" x="135.25" width="13.52" height="13.47"/><rect class="cls-3" x="121.72" y="336.84" width="13.53" height="13.48"/><rect class="cls-1" x="121.72" y="323.37" width="13.53" height="13.47"/><rect class="cls-1" x="121.72" y="309.89" width="13.53" height="13.48"/><rect class="cls-1" x="121.72" y="296.42" width="13.53" height="13.47"/><rect class="cls-1" x="121.72" y="282.95" width="13.53" height="13.47"/><rect class="cls-1" x="121.72" y="269.47" width="13.53" height="13.48"/><rect class="cls-1" x="121.72" y="256" width="13.53" height="13.47"/><rect class="cls-1" x="121.72" y="242.53" width="13.53" height="13.47"/><rect class="cls-1" x="121.72" y="229.05" width="13.53" height="13.48"/><rect class="cls-1" x="121.72" y="215.58" width="13.53" height="13.47"/><rect class="cls-1" x="121.72" y="202.11" width="13.53" height="13.47"/><rect class="cls-1" x="121.72" y="188.63" width="13.53" height="13.48"/><rect class="cls-1" x="121.72" y="175.16" width="13.53" height="13.47"/><rect class="cls-1" x="121.72" y="161.68" width="13.53" height="13.48"/><rect class="cls-1" x="121.72" y="148.21" width="13.53" height="13.47"/><rect class="cls-4" x="121.72" y="134.74" width="13.53" height="13.47"/><rect class="cls-8" x="121.72" y="121.26" width="13.53" height="13.48"/><rect class="cls-8" x="121.72" y="107.79" width="13.53" height="13.47"/><rect class="cls-3" x="121.72" y="94.32" width="13.53" height="13.47"/><rect class="cls-8" x="121.72" y="80.84" width="13.53" height="13.48"/><rect class="cls-3" x="121.72" y="67.37" width="13.53" height="13.47"/><rect class="cls-8" x="121.72" y="53.89" width="13.53" height="13.48"/><rect class="cls-8" x="121.72" y="40.42" width="13.53" height="13.47"/><rect class="cls-1" x="121.72" y="26.95" width="13.53" height="13.47"/><rect class="cls-3" x="121.72" y="13.47" width="13.53" height="13.48"/><rect class="cls-3" x="121.72" width="13.53" height="13.47"/><rect class="cls-3" x="108.2" y="336.84" width="13.52" height="13.48"/><rect class="cls-1" x="108.2" y="323.37" width="13.52" height="13.47"/><rect class="cls-1" x="108.2" y="309.89" width="13.52" height="13.48"/><rect class="cls-1" x="108.2" y="296.42" width="13.52" height="13.47"/><rect class="cls-6" x="108.2" y="282.95" width="13.52" height="13.47"/><rect class="cls-6" x="108.2" y="269.47" width="13.52" height="13.48"/><rect class="cls-4" x="108.2" y="256" width="13.52" height="13.47"/><rect class="cls-4" x="108.2" y="242.53" width="13.52" height="13.47"/><rect class="cls-4" x="108.2" y="229.05" width="13.52" height="13.48"/><rect class="cls-4" x="108.2" y="215.58" width="13.52" height="13.47"/><rect class="cls-4" x="108.2" y="202.11" width="13.52" height="13.47"/><rect class="cls-4" x="108.2" y="188.63" width="13.52" height="13.48"/><rect class="cls-1" x="108.2" y="175.16" width="13.52" height="13.47"/><rect class="cls-1" x="108.2" y="161.68" width="13.52" height="13.48"/><rect class="cls-1" x="108.2" y="148.21" width="13.52" height="13.47"/><rect class="cls-4" x="108.2" y="134.74" width="13.52" height="13.47"/><rect class="cls-8" x="108.2" y="121.26" width="13.52" height="13.48"/><rect class="cls-8" x="108.2" y="107.79" width="13.52" height="13.47"/><rect class="cls-3" x="108.2" y="94.32" width="13.52" height="13.47"/><rect class="cls-8" x="108.2" y="80.84" width="13.52" height="13.48"/><rect class="cls-8" x="108.2" y="67.37" width="13.52" height="13.47"/><rect class="cls-3" x="108.2" y="53.89" width="13.52" height="13.48"/><rect class="cls-8" x="108.2" y="40.42" width="13.52" height="13.47"/><rect class="cls-1" x="108.2" y="26.95" width="13.52" height="13.47"/><rect class="cls-3" x="108.2" y="13.47" width="13.52" height="13.48"/><rect class="cls-3" x="108.2" width="13.52" height="13.47"/><rect class="cls-3" x="94.67" y="336.84" width="13.53" height="13.48"/><rect class="cls-1" x="94.67" y="323.37" width="13.53" height="13.47"/><rect class="cls-1" x="94.67" y="309.89" width="13.53" height="13.48"/><rect class="cls-5" x="94.67" y="296.42" width="13.53" height="13.47"/><rect class="cls-5" x="94.67" y="282.95" width="13.53" height="13.47"/><rect class="cls-7" x="94.67" y="269.47" width="13.53" height="13.48"/><rect class="cls-1" x="94.67" y="256" width="13.53" height="13.47"/><rect class="cls-4" x="94.67" y="242.53" width="13.53" height="13.47"/><rect class="cls-1" x="94.67" y="229.05" width="13.53" height="13.48"/><rect class="cls-1" x="94.67" y="215.58" width="13.53" height="13.47"/><rect class="cls-1" x="94.67" y="202.11" width="13.53" height="13.47"/><rect class="cls-4" x="94.67" y="188.63" width="13.53" height="13.48"/><rect class="cls-1" x="94.67" y="175.16" width="13.53" height="13.47"/><rect class="cls-1" x="94.67" y="161.68" width="13.53" height="13.48"/><rect class="cls-1" x="94.67" y="148.21" width="13.53" height="13.47"/><rect class="cls-4" x="94.67" y="134.74" width="13.53" height="13.47"/><rect class="cls-8" x="94.67" y="121.26" width="13.53" height="13.48"/><rect class="cls-3" x="94.67" y="107.79" width="13.53" height="13.47"/><rect class="cls-8" x="94.67" y="94.32" width="13.53" height="13.47"/><rect class="cls-8" x="94.67" y="80.84" width="13.53" height="13.48"/><rect class="cls-8" x="94.67" y="67.37" width="13.53" height="13.47"/><rect class="cls-3" x="94.67" y="53.89" width="13.53" height="13.48"/><rect class="cls-8" x="94.67" y="40.42" width="13.53" height="13.47"/><rect class="cls-1" x="94.67" y="26.95" width="13.53" height="13.47"/><rect class="cls-3" x="94.67" y="13.47" width="13.53" height="13.48"/><rect class="cls-3" x="94.67" width="13.53" height="13.47"/><rect class="cls-3" x="81.15" y="336.84" width="13.52" height="13.48"/><rect class="cls-1" x="81.15" y="323.37" width="13.52" height="13.47"/><rect class="cls-1" x="81.15" y="309.89" width="13.52" height="13.48"/><rect class="cls-5" x="81.15" y="296.42" width="13.52" height="13.47"/><rect class="cls-7" x="81.15" y="282.95" width="13.52" height="13.47"/><rect class="cls-6" x="81.15" y="269.47" width="13.52" height="13.48"/><rect class="cls-6" x="81.15" y="256" width="13.52" height="13.47"/><rect class="cls-4" x="81.15" y="242.53" width="13.52" height="13.47"/><rect class="cls-4" x="81.15" y="229.05" width="13.52" height="13.48"/><rect class="cls-4" x="81.15" y="215.58" width="13.52" height="13.47"/><rect class="cls-4" x="81.15" y="202.11" width="13.52" height="13.47"/><rect class="cls-4" x="81.15" y="188.63" width="13.52" height="13.48"/><rect class="cls-1" x="81.15" y="175.16" width="13.52" height="13.47"/><rect class="cls-1" x="81.15" y="161.68" width="13.52" height="13.48"/><rect class="cls-1" x="81.15" y="148.21" width="13.52" height="13.47"/><rect class="cls-4" x="81.15" y="134.74" width="13.52" height="13.47"/><rect class="cls-3" x="81.15" y="121.26" width="13.52" height="13.48"/><rect class="cls-8" x="81.15" y="107.79" width="13.52" height="13.47"/><rect class="cls-8" x="81.15" y="94.32" width="13.52" height="13.47"/><rect class="cls-8" x="81.15" y="80.84" width="13.52" height="13.48"/><rect class="cls-8" x="81.15" y="67.37" width="13.52" height="13.47"/><rect class="cls-8" x="81.15" y="53.89" width="13.52" height="13.48"/><rect class="cls-3" x="81.15" y="40.42" width="13.52" height="13.47"/><rect class="cls-1" x="81.15" y="26.95" width="13.52" height="13.47"/><rect class="cls-3" x="81.15" y="13.47" width="13.52" height="13.48"/><rect class="cls-3" x="81.15" width="13.52" height="13.47"/><rect class="cls-3" x="67.62" y="336.84" width="13.53" height="13.48"/><rect class="cls-1" x="67.62" y="323.37" width="13.53" height="13.47"/><rect class="cls-1" x="67.62" y="309.89" width="13.53" height="13.48"/><rect class="cls-5" x="67.62" y="296.42" width="13.53" height="13.47"/><rect class="cls-5" x="67.62" y="282.95" width="13.53" height="13.47"/><rect class="cls-6" x="67.62" y="269.47" width="13.53" height="13.48"/><rect class="cls-7" x="67.62" y="256" width="13.53" height="13.47"/><rect class="cls-4" x="67.62" y="242.53" width="13.53" height="13.47"/><rect class="cls-1" x="67.62" y="229.05" width="13.53" height="13.48"/><rect class="cls-1" x="67.62" y="215.58" width="13.53" height="13.47"/><rect class="cls-1" x="67.62" y="202.11" width="13.53" height="13.47"/><rect class="cls-4" x="67.62" y="188.63" width="13.53" height="13.48"/><rect class="cls-1" x="67.62" y="175.16" width="13.53" height="13.47"/><rect class="cls-1" x="67.62" y="161.68" width="13.53" height="13.48"/><rect class="cls-1" x="67.62" y="148.21" width="13.53" height="13.47"/><rect class="cls-4" x="67.62" y="134.74" width="13.53" height="13.47"/><rect class="cls-2" x="67.62" y="121.26" width="13.53" height="13.48"/><rect class="cls-2" x="67.62" y="107.79" width="13.53" height="13.47"/><rect class="cls-2" x="67.62" y="94.32" width="13.53" height="13.47"/><rect class="cls-2" x="67.62" y="80.84" width="13.53" height="13.48"/><rect class="cls-2" x="67.62" y="67.37" width="13.53" height="13.47"/><rect class="cls-1" x="67.62" y="53.89" width="13.53" height="13.48"/><rect class="cls-1" x="67.62" y="40.42" width="13.53" height="13.47"/><rect class="cls-1" x="67.62" y="26.95" width="13.53" height="13.47"/><rect class="cls-3" x="67.62" y="13.47" width="13.53" height="13.48"/><rect class="cls-3" x="67.62" width="13.53" height="13.47"/><rect class="cls-3" x="54.1" y="336.84" width="13.52" height="13.48"/><rect class="cls-1" x="54.1" y="323.37" width="13.52" height="13.47"/><rect class="cls-1" x="54.1" y="309.89" width="13.52" height="13.48"/><rect class="cls-1" x="54.1" y="296.42" width="13.52" height="13.47"/><rect class="cls-5" x="54.1" y="282.95" width="13.52" height="13.47"/><rect class="cls-4" x="54.1" y="269.47" width="13.52" height="13.48"/><rect class="cls-4" x="54.1" y="256" width="13.52" height="13.47"/><rect class="cls-4" x="54.1" y="242.53" width="13.52" height="13.47"/><rect class="cls-4" x="54.1" y="229.05" width="13.52" height="13.48"/><rect class="cls-4" x="54.1" y="215.58" width="13.52" height="13.47"/><rect class="cls-4" x="54.1" y="202.11" width="13.52" height="13.47"/><rect class="cls-4" x="54.1" y="188.63" width="13.52" height="13.48"/><rect class="cls-1" x="54.1" y="175.16" width="13.52" height="13.47"/><rect class="cls-1" x="54.1" y="161.68" width="13.52" height="13.48"/><rect class="cls-1" x="54.1" y="148.21" width="13.52" height="13.47"/><rect class="cls-4" x="54.1" y="134.74" width="13.52" height="13.47"/><rect class="cls-2" x="54.1" y="121.26" width="13.52" height="13.48"/><rect class="cls-2" x="54.1" y="107.79" width="13.52" height="13.47"/><rect class="cls-2" x="54.1" y="94.32" width="13.52" height="13.47"/><rect class="cls-2" x="54.1" y="80.84" width="13.52" height="13.48"/><rect class="cls-2" x="54.1" y="67.37" width="13.52" height="13.47"/><rect class="cls-1" x="54.1" y="53.89" width="13.52" height="13.48"/><rect class="cls-1" x="54.1" y="40.42" width="13.52" height="13.47"/><rect class="cls-1" x="54.1" y="26.95" width="13.52" height="13.47"/><rect class="cls-3" x="54.1" y="13.47" width="13.52" height="13.48"/><rect class="cls-3" x="54.1" width="13.52" height="13.47"/><rect class="cls-3" x="40.57" y="336.84" width="13.53" height="13.48"/><rect class="cls-1" x="40.57" y="323.37" width="13.53" height="13.47"/><rect class="cls-1" x="40.57" y="309.89" width="13.53" height="13.48"/><rect class="cls-1" x="40.57" y="296.42" width="13.53" height="13.47"/><rect class="cls-1" x="40.57" y="282.95" width="13.53" height="13.47"/><rect class="cls-1" x="40.57" y="269.47" width="13.53" height="13.48"/><rect class="cls-1" x="40.57" y="256" width="13.53" height="13.47"/><rect class="cls-1" x="40.57" y="242.53" width="13.53" height="13.47"/><rect class="cls-1" x="40.57" y="229.05" width="13.53" height="13.48"/><rect class="cls-1" x="40.57" y="215.58" width="13.53" height="13.47"/><rect class="cls-1" x="40.57" y="202.11" width="13.53" height="13.47"/><rect class="cls-1" x="40.57" y="188.63" width="13.53" height="13.48"/><rect class="cls-1" x="40.57" y="175.16" width="13.53" height="13.47"/><rect class="cls-1" x="40.57" y="161.68" width="13.53" height="13.48"/><rect class="cls-1" x="40.57" y="148.21" width="13.53" height="13.47"/><rect class="cls-4" x="40.57" y="134.74" width="13.53" height="13.47"/><rect class="cls-2" x="40.57" y="121.26" width="13.53" height="13.48"/><rect class="cls-2" x="40.57" y="107.79" width="13.53" height="13.47"/><rect class="cls-2" x="40.57" y="94.32" width="13.53" height="13.47"/><rect class="cls-2" x="40.57" y="80.84" width="13.53" height="13.48"/><rect class="cls-2" x="40.57" y="67.37" width="13.53" height="13.47"/><rect class="cls-1" x="40.57" y="53.89" width="13.53" height="13.48"/><rect class="cls-1" x="40.57" y="40.42" width="13.53" height="13.47"/><rect class="cls-1" x="40.57" y="26.95" width="13.53" height="13.47"/><rect class="cls-3" x="40.57" y="13.47" width="13.53" height="13.48"/><rect class="cls-3" x="40.57" width="13.53" height="13.47"/><rect class="cls-3" x="27.05" y="336.84" width="13.52" height="13.48"/><rect class="cls-1" x="27.05" y="323.37" width="13.52" height="13.47"/><rect class="cls-1" x="27.05" y="309.89" width="13.52" height="13.48"/><rect class="cls-1" x="27.05" y="296.42" width="13.52" height="13.47"/><rect class="cls-1" x="27.05" y="282.95" width="13.52" height="13.47"/><rect class="cls-1" x="27.05" y="269.47" width="13.52" height="13.48"/><rect class="cls-1" x="27.05" y="256" width="13.52" height="13.47"/><rect class="cls-1" x="27.05" y="242.53" width="13.52" height="13.47"/><rect class="cls-1" x="27.05" y="229.05" width="13.52" height="13.48"/><rect class="cls-1" x="27.05" y="215.58" width="13.52" height="13.47"/><rect class="cls-1" x="27.05" y="202.11" width="13.52" height="13.47"/><rect class="cls-1" x="27.05" y="188.63" width="13.52" height="13.48"/><rect class="cls-1" x="27.05" y="175.16" width="13.52" height="13.47"/><rect class="cls-1" x="27.05" y="161.68" width="13.52" height="13.48"/><rect class="cls-1" x="27.05" y="148.21" width="13.52" height="13.47"/><rect class="cls-4" x="27.05" y="134.74" width="13.52" height="13.47"/><rect class="cls-2" x="27.05" y="121.26" width="13.52" height="13.48"/><rect class="cls-2" x="27.05" y="107.79" width="13.52" height="13.47"/><rect class="cls-2" x="27.05" y="94.32" width="13.52" height="13.47"/><rect class="cls-2" x="27.05" y="80.84" width="13.52" height="13.48"/><rect class="cls-2" x="27.05" y="67.37" width="13.52" height="13.47"/><rect class="cls-1" x="27.05" y="53.89" width="13.52" height="13.48"/><rect class="cls-1" x="27.05" y="40.42" width="13.52" height="13.47"/><rect class="cls-1" x="27.05" y="26.95" width="13.52" height="13.47"/><rect class="cls-3" x="27.05" y="13.47" width="13.52" height="13.48"/><rect class="cls-3" x="27.05" width="13.52" height="13.47"/><rect class="cls-2" x="13.52" y="121.26" width="13.53" height="13.48"/><rect class="cls-2" x="13.52" y="107.79" width="13.53" height="13.47"/><rect class="cls-2" x="13.52" y="94.32" width="13.53" height="13.47"/><rect class="cls-2" x="13.52" y="80.84" width="13.53" height="13.48"/><rect class="cls-2" x="13.52" y="67.37" width="13.53" height="13.47"/><rect class="cls-1" x="13.52" y="53.89" width="13.53" height="13.48"/><rect class="cls-1" x="13.52" y="40.42" width="13.53" height="13.47"/><rect class="cls-1" x="13.52" y="26.95" width="13.53" height="13.47"/><rect class="cls-3" x="13.52" y="13.47" width="13.53" height="13.48"/><rect class="cls-1" y="26.95" width="13.52" height="13.47"/></svg>